<?xml version="1.0" encoding="UTF-8"?>
<svg id="Layer_2" data-name="Layer 2" xmlns="http://www.w3.org/2000/svg" viewBox="0 0 420 420">
  <defs>
    <style>
      .cls-1 {
      fill: #fff;
      stroke-width: 0px;
      }
    </style>
  </defs>
  <g id="Layer_1-2" data-name="Layer 1">
    <path class="cls-1"
      d="M370,0H50C22.4,0,0,22.4,0,50v320c0,27.6,22.4,50,50,50h320c27.6,0,50-22.4,50-50V50c0-27.6-22.4-50-50-50ZM330,150h-20c-21.4,0-30,5-30,20v30h50l-10,50h-40v150h-50v-150h-40v-50h40v-30c0-40,20-70,60-70,29,0,40,10,40,10v40Z" />
  </g>
</svg>