<?xml version="1.0" encoding="UTF-8"?>
<svg id="Layer_2" data-name="Layer 2" xmlns="http://www.w3.org/2000/svg" viewBox="0 0 384 384">
  <defs>
    <style>
      .cls-1 {
        fill: #fff;
        stroke-width: 0px;
      }
    </style>
  </defs>
  <g id="Layer_1-2" data-name="Layer 1">
    <path class="cls-1" d="M320,0H64C28.66,0,0,28.66,0,64v256c0,35.34,28.66,64,64,64h256c35.34,0,64-28.66,64-64V64c0-35.34-28.66-64-64-64ZM128,312h-40v-160h40v160ZM128.23,120.07c-5.18,5.28-11.93,7.93-20.23,7.93s-14.92-2.73-20.15-8.18c-5.23-5.46-7.85-12.15-7.85-20.07s2.62-14.82,7.85-19.98c5.23-5.18,11.94-7.76,20.15-7.76s15.06,2.58,20.23,7.75,7.77,11.83,7.77,19.99-2.59,15.05-7.77,20.33ZM312,312h-40v-88.9c0-24.79-14.29-39.1-32-39.1-8.54,0-18.19,5.18-23.72,11.75-5.53,6.57-8.28,14.9-8.28,25v91.25h-40v-160h40v25.31h.62c11.78-19.48,28.9-29.15,51.41-29.22,31.97-.1,51.97,23.9,51.97,65.94v97.97Z"/>
  </g>
</svg>