<?xml version="1.0" encoding="UTF-8"?>
<svg id="Layer_2" data-name="Layer 2" xmlns="http://www.w3.org/2000/svg" viewBox="0 0 1338.17 279.24">
  <defs>
    <style>
      .cls-1 {
        fill: #fff;
        stroke-width: 0px;
      }
    </style>
  </defs>
  <g id="Layer_1-2" data-name="Layer 1">
    <g id="LOGO">
      <g>
        <path class="cls-1" d="M221.48,2.07h45.19c5.56,0,8.15,1.93,8.15,5.4,0,2.32-.74,4.63-1.85,6.95l-118.15,245.13c-7.04,15.06-11.11,19.69-17.04,19.69s-9.63-4.63-17.04-19.69L1.85,14.42c-1.11-2.32-1.85-4.63-1.85-6.56C0,4,2.96,2.07,8.52,2.07h47.41c9.26,0,12.96,2.7,17.41,12.35l65.56,140.52L203.72,14.42c4.42-9.64,8.5-12.35,17.76-12.35Z"/>
        <path class="cls-1" d="M470.1,5.84c2.36-2.71,5.27-4.06,8.72-4.06s6.36,1.35,8.72,4.06c2.36,2.71,5.42,8.18,9.19,16.44l115.4,244.68c.05.1.1.22.14.32.9,2.25,1.35,4.13,1.35,5.64,0,2.06-.78,3.54-2.36,4.45-1.57.9-4.24,1.35-8.01,1.35l-36.59-.26c-5.02,0-8.56-.71-10.6-2.13s-4.32-4.58-6.83-9.48l-67.43-139.53c-1.78-3.17-6.26-3.06-7.9.19l-68.83,133.37c-3.14,6.44-5.81,10.89-8.01,13.35-2.19,2.45-5.02,3.67-8.48,3.67-3.14,0-5.81-1.16-8.01-3.48-2.19-2.32-4.87-6.84-8.01-13.54l-69.17-133.4c-1.64-3.24-6.11-3.34-7.89-.18l-69.74,139.6c-2.51,4.64-4.87,7.74-7.07,9.28-2.19,1.55-5.66,2.32-10.37,2.32l-34.75.21c-3.77,0-6.44-.45-8.01-1.35-1.57-.91-2.36-2.39-2.36-4.45,0-1.51,1.26-4.52,2.16-6.76.04-.11.09-.22.14-.32L280.9,22.27c3.77-8.26,6.83-13.73,9.19-16.44s5.11-4.06,8.25-4.06,5.97,1.35,8.48,4.06c2.52,2.71,5.5,7.8,8.95,15.28l69.04,139.22c1.67,3.38,6.36,3.38,8.03,0L461.82,21.23c.04-.08.08-.17.11-.25,3.09-7.41,5.82-12.45,8.17-15.14Z"/>
        <g>
          <path class="cls-1" d="M577.28,5.91c.81-1.61,1.57-2.69,2.28-3.22.72-.54,1.79-.81,3.22-.81h6.85c1.88,0,2.82.58,2.82,1.75,0,.45-.22,1.21-.67,2.28l-40.55,85.12c-.72,1.61-1.39,2.95-2.01,4.03-.63,1.07-1.14,1.79-1.54,2.15-.4.36-.92.54-1.54.54-.81,0-1.54-.45-2.22-1.34-.67-.89-1.63-2.69-2.89-5.37L500.35,5.92c-.45-1.07-.67-1.83-.67-2.28,0-1.16.94-1.75,2.82-1.75h7.38c1.43,0,2.5.27,3.22.81s1.43,1.61,2.15,3.22l31.15,66.86,30.88-66.87Z"/>
          <path class="cls-1" d="M694.76,83.72c.45.4.67,1.19.67,2.35v6.85c0,1.16-.22,1.95-.67,2.35s-1.21.6-2.28.6h-50.89c-1.07,0-1.84-.2-2.28-.6-.45-.4-.67-1.19-.67-2.35V4.84c0-1.16.22-1.95.67-2.35s1.21-.6,2.28-.6h50.75c1.07,0,1.83.2,2.28.6s.67,1.19.67,2.35v6.85c0,1.16-.23,1.95-.67,2.35-.45.4-1.21.6-2.28.6h-38.67c-.63,0-1.05.11-1.28.34-.22.22-.34.6-.34,1.14v24.57c0,.63.11,1.05.34,1.28.22.22.65.34,1.28.34h34.1c1.07,0,1.83.2,2.28.6s.67,1.19.67,2.35v6.71c0,1.07-.22,1.84-.67,2.28-.45.45-1.21.67-2.28.67h-34.1c-.63,0-1.05.11-1.28.34-.22.22-.34.6-.34,1.14v25.24c0,.54.11.92.34,1.14.22.22.65.34,1.28.34h38.8c1.08,0,1.84.2,2.29.6Z"/>
          <path class="cls-1" d="M762.77,82.78c.22.22.65.34,1.28.34h39.61c1.07,0,1.83.2,2.28.6.45.4.67,1.19.67,2.35v6.85c0,1.16-.23,1.95-.67,2.35-.45.4-1.21.6-2.28.6h-51.69c-1.07,0-1.84-.2-2.28-.6-.45-.4-.67-1.19-.67-2.35V4.84c0-1.16.22-1.95.67-2.35.45-.4,1.21-.6,2.28-.6h7.52c1.07,0,1.83.2,2.28.6.45.4.67,1.19.67,2.35v76.8c-.01.54.1.92.33,1.14Z"/>
          <path class="cls-1" d="M870.38,95.27c-.45.4-1.21.6-2.28.6h-7.52c-1.07,0-1.84-.2-2.28-.6-.45-.4-.67-1.19-.67-2.35V4.84c0-1.16.22-1.95.67-2.35.45-.4,1.21-.6,2.28-.6h7.52c1.07,0,1.83.2,2.28.6.45.4.67,1.19.67,2.35v88.08c0,1.16-.22,1.95-.67,2.35Z"/>
          <path class="cls-1" d="M942.95,82.78c.22.22.65.34,1.28.34h39.61c1.07,0,1.83.2,2.28.6.45.4.67,1.19.67,2.35v6.85c0,1.16-.23,1.95-.67,2.35-.45.4-1.21.6-2.28.6h-51.69c-1.07,0-1.84-.2-2.28-.6-.45-.4-.67-1.19-.67-2.35V4.84c0-1.16.22-1.95.67-2.35.45-.4,1.21-.6,2.28-.6h7.52c1.07,0,1.83.2,2.28.6.45.4.67,1.19.67,2.35v76.8c-.01.54.11.92.33,1.14Z"/>
          <path class="cls-1" d="M1051.57,82.78c.22.22.65.34,1.28.34h39.61c1.07,0,1.83.2,2.28.6.45.4.67,1.19.67,2.35v6.85c0,1.16-.23,1.95-.67,2.35-.45.4-1.21.6-2.28.6h-51.69c-1.07,0-1.84-.2-2.28-.6-.45-.4-.67-1.19-.67-2.35V4.84c0-1.16.22-1.95.67-2.35.45-.4,1.21-.6,2.28-.6h7.52c1.07,0,1.83.2,2.28.6.45.4.67,1.19.67,2.35v76.8c-.01.54.11.92.33,1.14Z"/>
          <path class="cls-1" d="M1154.88,91.84c-.72,1.61-1.43,2.69-2.15,3.22-.72.54-1.79.81-3.22.81h-6.98c-1.79,0-2.69-.58-2.69-1.75,0-.45.22-1.21.67-2.28l40.41-85.12c1.34-2.77,2.33-4.59,2.95-5.44.63-.85,1.39-1.28,2.28-1.28.81,0,1.5.43,2.08,1.28s1.54,2.66,2.89,5.44l40.82,85.12c.45,1.07.67,1.84.67,2.28,0,1.16-.94,1.75-2.82,1.75h-7.52c-1.43,0-2.48-.27-3.16-.81-.67-.54-1.41-1.61-2.22-3.22l-31.02-66.86-30.99,66.86Z"/>
        </g>
        <path class="cls-1" d="M656.43,134.09c.86-.94,1.92-1.41,3.17-1.41s2.31.47,3.17,1.41c.86.94,1.97,2.84,3.34,5.71l42,84.59c.34.81.51,1.48.51,2.01,0,.72-.28,1.23-.86,1.54-.57.31-1.54.47-2.91.47h-9.43c-1.83,0-3.11-.25-3.86-.74-.74-.49-1.57-1.59-2.49-3.29l-30-63.37-26.57,58c-1.14,2.24-2.11,3.78-2.91,4.63s-1.83,1.28-3.09,1.28c-1.14,0-2.11-.4-2.91-1.21-.8-.81-1.77-2.37-2.91-4.7l-26.23-57.6-30,62.97c-.91,1.61-1.77,2.68-2.57,3.22-.8.54-2.06.81-3.77.81h-9.26c-1.37,0-2.34-.16-2.91-.47-.57-.31-.86-.83-.86-1.54,0-.54.17-1.21.51-2.01l42-84.59c1.37-2.87,2.49-4.77,3.34-5.71.86-.94,1.86-1.41,3-1.41s2.17.47,3.09,1.41c.92.94,2,2.71,3.26,5.3l26.57,57.06,26.57-57.06c1.16-2.59,2.16-4.36,3.01-5.3Z"/>
        <g>
          <path class="cls-1" d="M899.68,271.04c.31-.26.56-.39.73-.39.11,0,.23.04.34.13s.21.19.3.3l1.25,1.72c.14.17.21.37.21.6,0,.11-.04.24-.13.37s-.21.27-.39.41c-1.52,1.29-3.23,2.28-5.13,2.98s-3.9,1.05-5.99,1.05c-2.81,0-5.38-.66-7.71-1.98s-4.18-3.15-5.54-5.5-2.04-4.98-2.04-7.9.68-5.61,2.04-7.99,3.22-4.24,5.58-5.6,5-2.04,7.92-2.04c2.06,0,4.03.36,5.91,1.07,1.87.72,3.54,1.69,5,2.92.29.2.43.42.43.64,0,.2-.09.43-.26.69l-1.25,1.67c-.23.32-.46.47-.69.47-.17,0-.42-.11-.73-.34-1.23-.94-2.56-1.69-3.99-2.23-1.43-.54-2.93-.82-4.51-.82-2.03,0-3.89.49-5.56,1.46s-3,2.33-3.97,4.08-1.46,3.72-1.46,5.93.48,4.05,1.44,5.8,2.28,3.11,3.95,4.1c1.67.99,3.54,1.48,5.6,1.48,3.25.01,6.13-1.02,8.65-3.08Z"/>
          <path class="cls-1" d="M921.86,254.87c1.36-2.39,3.22-4.27,5.58-5.63s5-2.04,7.92-2.04,5.55.67,7.9,2.02,4.19,3.19,5.54,5.54c1.35,2.35,2.02,4.98,2.02,7.9s-.68,5.57-2.04,7.94c-1.36,2.38-3.23,4.24-5.6,5.58-2.38,1.35-5.04,2.02-7.99,2.02s-5.5-.67-7.84-2c-2.33-1.33-4.17-3.17-5.52-5.52s-2.02-4.97-2.02-7.86c0-2.91.69-5.56,2.05-7.95ZM925.73,268.61c.96,1.73,2.28,3.09,3.95,4.06,1.67.97,3.53,1.46,5.56,1.46s3.9-.49,5.6-1.48,3.05-2.35,4.04-4.1,1.48-3.69,1.48-5.84-.49-4.17-1.46-5.91c-.97-1.73-2.31-3.08-3.99-4.06-1.69-.97-3.55-1.46-5.58-1.46s-3.89.49-5.58,1.48-3.02,2.36-3.99,4.1c-.97,1.75-1.46,3.72-1.46,5.93-.01,2.15.47,4.09,1.43,5.82Z"/>
          <path class="cls-1" d="M991.67,247.87c.14-.13.39-.19.73-.19h2.4c.34,0,.59.06.73.19.14.13.21.38.21.75v28.17c0,.94-.29,1.42-.86,1.42-.23,0-.47-.09-.73-.28-.26-.19-.62-.54-1.07-1.05l-17.44-20.57v20.49c0,.37-.07.62-.21.75s-.39.19-.73.19h-2.41c-.34,0-.59-.06-.73-.19-.14-.13-.21-.38-.21-.75v-28.17c0-.49.07-.84.21-1.07s.37-.34.69-.34c.23,0,.47.09.73.28.26.19.6.54,1.03,1.05l17.44,20.57v-20.48c.01-.39.08-.65.22-.77Z"/>
          <path class="cls-1" d="M1017.35,270.78c.14,0,.36.11.64.34,2.61,2.03,5.22,3.05,7.86,3.05,1.32,0,2.46-.19,3.44-.56.97-.37,1.73-.91,2.25-1.61.53-.7.79-1.51.79-2.43s-.21-1.62-.64-2.19-1.12-1.07-2.08-1.48-2.31-.85-4.06-1.31c-2.06-.52-3.76-1.12-5.09-1.8-1.33-.69-2.36-1.58-3.09-2.68-.73-1.1-1.09-2.48-1.09-4.14,0-1.8.44-3.36,1.33-4.68.89-1.32,2.1-2.33,3.63-3.03,1.53-.7,3.26-1.05,5.17-1.05,3.61,0,6.87,1.13,9.79,3.39.14.11.25.22.32.32s.11.21.11.32c0,.09-.03.19-.09.3-.06.11-.13.24-.21.39l-1.25,1.85c-.11.17-.22.29-.32.37-.1.07-.21.11-.32.11-.2,0-.44-.1-.73-.3-1.15-.83-2.32-1.49-3.52-1.98-1.2-.49-2.48-.73-3.82-.73-1.09,0-2.06.18-2.9.54-.85.36-1.5.87-1.98,1.55-.47.67-.71,1.47-.71,2.38s.24,1.67.71,2.28c.47.6,1.17,1.1,2.1,1.5.93.4,2.2.8,3.8,1.2,2.2.57,3.99,1.22,5.35,1.93,1.36.72,2.38,1.61,3.05,2.68.67,1.07,1.01,2.4,1.01,3.97,0,1.78-.47,3.34-1.42,4.7-.95,1.36-2.25,2.41-3.91,3.13-1.66.73-3.56,1.1-5.71,1.1-1.95,0-3.77-.33-5.47-.99s-3.27-1.56-4.7-2.71c-.31-.29-.47-.53-.47-.73s.1-.44.3-.73l1.29-1.8c.23-.31.44-.47.64-.47Z"/>
          <path class="cls-1" d="M1080.25,272.26c-1.07,1.99-2.56,3.48-4.47,4.47-1.9.99-4.09,1.48-6.55,1.48s-4.47-.47-6.29-1.42c-1.82-.95-3.24-2.41-4.27-4.38-1.03-1.98-1.55-4.42-1.55-7.34v-16.45c0-.37.07-.62.21-.75s.39-.19.73-.19h2.36c.37,0,.63.06.77.19.14.13.21.38.21.75v16.19c0,2.95.69,5.24,2.06,6.87,1.38,1.63,3.35,2.45,5.93,2.45,1.72,0,3.18-.37,4.4-1.12,1.22-.74,2.15-1.81,2.79-3.2.64-1.39.97-3.04.97-4.96v-16.23c0-.37.07-.62.21-.75s.37-.19.69-.19h2.4c.37,0,.63.06.77.19.14.13.21.38.21.75v16.32c.03,2.89-.51,5.33-1.58,7.32Z"/>
          <path class="cls-1" d="M1108.37,273.55c.07.07.21.11.41.11h12.67c.34,0,.59.06.73.19s.21.38.21.75v2.19c0,.37-.07.62-.21.75s-.39.19-.73.19h-16.53c-.34,0-.59-.06-.73-.19-.14-.13-.21-.38-.21-.75v-28.17c0-.37.07-.62.21-.75s.39-.19.73-.19h2.41c.34,0,.59.06.73.19.14.13.21.38.21.75v24.57c0,.16.03.29.1.36Z"/>
          <path class="cls-1" d="M1160.32,251.56c-.14.13-.39.19-.73.19h-8.07c-.2,0-.34.04-.41.11-.07.07-.11.19-.11.37v24.57c0,.37-.07.62-.21.75s-.39.19-.73.19h-2.4c-.34,0-.59-.06-.73-.19-.14-.13-.21-.38-.21-.75v-24.57c0-.17-.04-.29-.11-.37-.07-.07-.21-.11-.41-.11h-8.07c-.34,0-.59-.06-.73-.19-.14-.13-.21-.38-.21-.75v-2.19c0-.37.07-.62.21-.75s.39-.19.73-.19h21.47c.34,0,.59.06.73.19s.21.38.21.75v2.19c-.01.37-.08.62-.22.75Z"/>
          <path class="cls-1" d="M1183.81,277.54c-.14.13-.39.19-.73.19h-2.41c-.34,0-.59-.06-.73-.19-.14-.13-.21-.38-.21-.75v-28.17c0-.37.07-.62.21-.75s.39-.19.73-.19h2.41c.34,0,.59.06.73.19.14.13.21.38.21.75v28.17c0,.37-.07.62-.21.75Z"/>
          <path class="cls-1" d="M1226.67,247.87c.14-.13.39-.19.73-.19h2.4c.34,0,.59.06.73.19.14.13.21.38.21.75v28.17c0,.94-.29,1.42-.86,1.42-.23,0-.47-.09-.73-.28-.26-.19-.62-.54-1.07-1.05l-17.44-20.57v20.49c0,.37-.07.62-.21.75s-.39.19-.73.19h-2.41c-.34,0-.59-.06-.73-.19-.14-.13-.21-.38-.21-.75v-28.17c0-.49.07-.84.21-1.07s.37-.34.69-.34c.23,0,.47.09.73.28.26.19.6.54,1.03,1.05l17.44,20.57v-20.48c0-.39.07-.65.22-.77Z"/>
          <path class="cls-1" d="M1278.31,275.07c-.1.17-.31.33-.62.47-3.35,1.78-7.07,2.66-11.17,2.66-2.78,0-5.33-.64-7.64-1.91-2.32-1.27-4.17-3.07-5.54-5.39-1.38-2.32-2.06-4.98-2.06-7.99s.7-5.83,2.1-8.22,3.31-4.24,5.71-5.54c2.41-1.3,5.07-1.95,7.99-1.95,2.03,0,3.98.32,5.84.97,1.86.64,3.48,1.47,4.85,2.47.37.26.56.51.56.77,0,.11-.1.33-.3.64l-1.2,1.72c-.2.29-.43.43-.69.43-.2,0-.43-.08-.69-.26-2.75-1.77-5.57-2.66-8.46-2.66-2.18,0-4.12.49-5.84,1.46s-3.05,2.33-3.99,4.08c-.95,1.75-1.42,3.72-1.42,5.93s.49,4.22,1.48,5.97,2.32,3.09,3.99,4.04c1.67.94,3.53,1.42,5.56,1.42,2.69,0,4.95-.41,6.79-1.25.26-.11.42-.22.49-.32s.11-.26.11-.49v-7.64c0-.37.07-.62.21-.75s.39-.19.73-.19h2.41c.34,0,.59.06.73.19s.21.38.21.75v9.83c.01.33-.04.59-.14.76Z"/>
        </g>
        <g>
          <path class="cls-1" d="M806.23,143.13c-7.34-4.21-15.58-6.31-24.71-6.31s-17.39,2.13-24.77,6.38-13.2,10.12-17.45,17.59-6.38,15.78-6.38,24.91,2.1,17.23,6.31,24.57c4.21,7.34,9.96,13.09,17.25,17.25s15.46,6.24,24.5,6.24,17.54-2.1,24.97-6.31c7.43-4.21,13.27-10.02,17.52-17.45,4.25-7.43,6.38-15.71,6.38-24.84s-2.1-17.36-6.31-24.71c-4.2-7.34-9.98-13.11-17.31-17.32ZM811.26,203.55c-3.09,5.46-7.3,9.73-12.62,12.82-5.33,3.09-11.17,4.63-17.52,4.63s-12.15-1.52-17.39-4.56-9.36-7.27-12.35-12.69c-3-5.41-4.5-11.48-4.5-18.19s1.52-13.07,4.57-18.53c3.04-5.46,7.2-9.73,12.49-12.82,5.28-3.09,11.1-4.63,17.45-4.63s12.17,1.52,17.45,4.57c5.28,3.04,9.44,7.27,12.49,12.69,3.04,5.42,4.56,11.57,4.56,18.46,0,6.7-1.54,12.79-4.63,18.25Z"/>
          <path class="cls-1" d="M930.96,192.54c5.73-1.97,10.2-5.03,13.43-9.2,3.22-4.16,4.83-9.47,4.83-15.91,0-19.42-12.76-29.14-38.27-29.14h-25.64c-1.07,0-1.84.2-2.28.6-.45.4-.67,1.19-.67,2.35v88.08c0,1.16.22,1.95.67,2.35.45.4,1.21.6,2.28.6h7.52c1.07,0,1.83-.2,2.28-.6.45-.4.67-1.19.67-2.35v-33.91h21.62l20.94,33.24c.98,1.52,1.83,2.51,2.55,2.95.72.45,1.83.67,3.36.67h7.92c.98,0,1.72-.11,2.22-.34.49-.22.74-.6.74-1.14,0-.72-.36-1.57-1.07-2.55l-23.1-35.7ZM895.78,152.26c0-.63.11-1.05.34-1.28s.65-.34,1.28-.34h12.89c8.06,0,14.21,1.41,18.46,4.23s6.38,7.27,6.38,13.36c0,6.39-2.45,11.11-7.31,14.18h-32.03v-30.15h0Z"/>
          <path class="cls-1" d="M1055.96,219.53h-38.8c-.63,0-1.05-.11-1.28-.34s-.34-.6-.34-1.14v-25.24c0-.54.11-.92.34-1.14.22-.22.65-.34,1.28-.34h34.1c1.07,0,1.83-.22,2.28-.67s.67-1.21.67-2.28v-6.71c0-1.16-.22-1.95-.67-2.35-.45-.4-1.21-.6-2.28-.6h-34.1c-.63,0-1.05-.11-1.28-.34s-.34-.65-.34-1.28v-24.57c0-.54.11-.92.34-1.14.22-.22.65-.34,1.28-.34h38.67c1.07,0,1.83-.2,2.28-.6.45-.4.67-1.19.67-2.35v-6.85c0-1.16-.23-1.95-.67-2.35-.45-.4-1.21-.6-2.28-.6h-50.75c-1.07,0-1.84.2-2.28.6-.45.4-.67,1.19-.67,2.35v88.08c0,1.16.22,1.95.67,2.35.45.4,1.21.6,2.28.6h50.89c1.07,0,1.83-.2,2.28-.6.45-.4.67-1.19.67-2.35v-6.85c0-1.16-.22-1.95-.67-2.35-.46-.4-1.22-.6-2.29-.6Z"/>
          <path class="cls-1" d="M1185.79,138.3h-7.52c-1.07,0-1.84.2-2.28.6-.45.4-.67,1.19-.67,2.35v64.04l-54.51-64.31c-1.34-1.61-2.42-2.71-3.22-3.29-.81-.58-1.57-.87-2.28-.87-.99,0-1.7.36-2.15,1.07-.45.72-.67,1.84-.67,3.36v88.08c0,1.16.22,1.95.67,2.35.45.4,1.21.6,2.28.6h7.52c1.07,0,1.83-.2,2.28-.6.45-.4.67-1.19.67-2.35v-64.05l54.51,64.31c1.43,1.61,2.55,2.71,3.36,3.29.81.58,1.56.87,2.28.87,1.79,0,2.68-1.48,2.68-4.43v-88.08c0-1.16-.22-1.95-.67-2.35-.44-.39-1.2-.59-2.28-.59Z"/>
          <path class="cls-1" d="M1331.87,160.45c-4.21-7.34-9.98-13.11-17.32-17.32s-15.58-6.31-24.71-6.31-17.39,2.13-24.77,6.38c-7.39,4.25-13.2,10.12-17.45,17.59s-6.38,15.78-6.38,24.91,2.1,17.23,6.31,24.57c4.21,7.34,9.96,13.09,17.25,17.25s15.46,6.24,24.5,6.24,17.54-2.1,24.97-6.31c7.43-4.21,13.27-10.02,17.52-17.45,4.25-7.43,6.38-15.71,6.38-24.84,0-9.13-2.09-17.37-6.3-24.71ZM1319.59,203.55c-3.09,5.46-7.3,9.73-12.62,12.82-5.33,3.09-11.17,4.63-17.52,4.63s-12.15-1.52-17.39-4.56-9.36-7.27-12.35-12.69c-3-5.41-4.5-11.48-4.5-18.19s1.52-13.07,4.57-18.53c3.04-5.46,7.2-9.73,12.49-12.82,5.28-3.09,11.1-4.63,17.45-4.63s12.17,1.52,17.45,4.57c5.28,3.04,9.44,7.27,12.49,12.69,3.04,5.42,4.56,11.57,4.56,18.46,0,6.7-1.54,12.79-4.63,18.25Z"/>
        </g>
      </g>
    </g>
  </g>
</svg>